<?xml version="1.0" encoding="UTF-8"?><svg id="Layer_1" xmlns="http://www.w3.org/2000/svg" viewBox="0 0 574.03 610.2"><path d="m372.53,8.48h0s-43.62,0-43.62,0H9.25c58.77.02,108.06,27.4,108.06,86.18v420.44c0,58.78-49.28,87.78-108.06,87.79h0s43.62,0,43.62,0h319.66c-58.77-.02-108.06-29.01-108.06-87.79V94.66c0-58.78,49.28-86.17,108.06-86.18Zm-196.43,562.41V38.25h9.83v532.64h-9.83Zm29.57-479.39v479.39h-9.87V38.25h9.87v53.25Z"/><path d="m504.9,167.15c0,87.66-46.84,153.36-107.16,164.11h0c55.88-5.62,90.53-20.12,117.64-41.68,34.63-28.19,51.55-69.27,51.55-121.62s-20.14-92.63-52.35-120.01c-25.47-20.38-59.51-34.99-116.83-39.47h0c52.53,8.55,107.16,70.5,107.16,158.67Z"/><path d="m563.42,442.94c-4.19,55.11-16.96,86.93-54.7,117.66-25.86,21.06-62.22,36.13-114.53,42.18h148.94c13.32-1.39,23.7-12.65,23.7-26.33v-224.88c0,23.31-.97,59.2-3.42,91.38Z"/></svg>