<?xml version="1.0" encoding="UTF-8"?><svg id="Layer_1" xmlns="http://www.w3.org/2000/svg" viewBox="0 0 526.8 614.12"><path d="m392.39,570.74h-144.98c-7.27,0-12.74-.46-16.8-2.35-9.6-8.34-10.58-23.81-10.58-52.42v-182.84h69.27c91.82,0,140.15-16.11,175.59-44.3,34.63-28.19,51.55-69.27,51.55-121.62s-20.14-92.63-52.35-120.01c-32.22-25.77-78.13-39.47-167.53-39.47H8.7v24.16c58.8,0,64.44,3.22,64.44,62.02v420.44c0,58.8-5.64,63.63-64.44,63.63v24.16h462.63l29-130.48h-29.8c-23.36,93.43-31.41,99.07-78.13,99.07Zm-230.96-.59h-29.5V37.51h29.5v532.64ZM231.48,39.36c2.38-.74,5.24-1.02,8.69-1.02h46.72c57.99,0,167.53,3.22,167.53,128.07,0,114.37-79.74,136.12-165.12,136.12h-69.27V93.92c0-31.3-2.75-49.43,11.45-54.55Z"/></svg>