<svg width="64" height="64" viewBox="0 0 64 64" fill="none" xmlns="http://www.w3.org/2000/svg">
<path d="M56.8266 26.1541L60.0668 22.914C65.3078 17.673 65.3078 9.17389 60.0668 3.93288C54.8258 -1.30813 46.3267 -1.30813 41.0857 3.93288L37.8455 7.17305C34.6173 10.4013 29.3823 10.4013 26.154 7.17305L22.9139 3.93288C17.6729 -1.31111 9.17377 -1.31111 3.92978 3.92989C-1.31123 9.1709 -1.31123 17.67 3.92978 22.911L7.16994 26.1512C10.3982 29.3794 10.3982 34.6144 7.16994 37.8426L3.92978 41.0828C-1.31123 46.3238 -1.31123 54.8229 3.92978 60.0639C9.17078 65.3049 17.6699 65.3049 22.9109 60.0639L26.151 56.8237C29.3793 53.5955 34.6143 53.5955 37.8425 56.8237L41.0827 60.0639C46.3237 65.3049 54.8228 65.3049 60.0638 60.0639C65.3048 54.8229 65.3048 46.3238 60.0638 41.0828L56.8236 37.8426C53.5954 34.6144 53.5954 29.3794 56.8236 26.1512L56.8266 26.1541Z" fill="black"/>
</svg>
