<svg width="24" height="23" viewBox="0 0 24 23" fill="none" xmlns="http://www.w3.org/2000/svg">
<path d="M5.03673 2.55669C5.03639 3.23443 4.77075 3.88427 4.29822 4.36327C3.8257 4.84226 3.18502 5.11117 2.5171 5.11083C1.84919 5.11049 1.20877 4.84093 0.736721 4.36146C0.264673 3.88199 -0.00033364 3.23187 3.15251e-07 2.55414C0.000334271 1.8764 0.265981 1.22655 0.738502 0.74756C1.21102 0.268567 1.85171 -0.000338549 2.51962 3.19889e-07C3.18753 0.000339189 3.82796 0.269894 4.30001 0.749367C4.77205 1.22884 5.03706 1.87895 5.03673 2.55669V2.55669ZM5.11228 7.00311H0.0755511V23H5.11228V7.00311ZM13.0703 7.00311H8.05876V23H13.0199V14.6055C13.0199 9.92906 19.0262 9.49464 19.0262 14.6055V23H24V12.8678C24 4.98433 15.1102 5.27821 13.0199 9.14966L13.0703 7.00311V7.00311Z" fill="black"/>
</svg>
